<svg xmlns="http://www.w3.org/2000/svg" viewBox="0 0 1498.61 474.44"><defs><style>.cls-1,.cls-2{fill:#fbf0ff;}.cls-2{font-size:226.83px;font-family:Montserrat-Bold, Montserrat;font-weight:700;}</style></defs><g id="Layer_2" data-name="Layer 2"><g id="Layer_1-2" data-name="Layer 1"><path class="cls-1" d="M382.78,264.63c12,29.06,16.08,65.42,6.93,111-23.92,24.76-98.34,87.89-185.54,98.57-.77.07-1.5.19-2.26.26s-1.49-.19-2.26-.26C112.41,463.5,38,400.37,14.11,375.61c-9.31-46.21-5-83,7.46-112.28v0c-7.69-14.62-60-125,33.08-263.29C67,17.3,123.59,146.12,133.12,167.94h0a321.52,321.52,0,0,1,58.45-15c3.91-.65,7.39-1.11,10.3-1.49,2.91.38,6.35.84,10.26,1.49a325,325,0,0,1,60.06,15.58C281,148.49,338.49,17.46,351,0c100,148.6,32.2,264.94,32.2,264.94Z"/><text class="cls-2" transform="translate(499.23 326.75)">solid cat</text></g></g></svg>