<?xml version="1.0" encoding="utf-8"?>
<!-- Generator: Adobe Illustrator 24.1.3, SVG Export Plug-In . SVG Version: 6.00 Build 0)  -->
<svg version="1.1" id="Layer_1" xmlns="http://www.w3.org/2000/svg" xmlns:xlink="http://www.w3.org/1999/xlink" x="0px" y="0px"
	 viewBox="0 0 1498.6 474.4" style="enable-background:new 0 0 1498.6 474.4;" xml:space="preserve">
<style type="text/css">
	.st0{fill:#393939;}
	.st1{enable-background:new    ;}
</style>
<g id="Layer_2_1_">
	<g id="Layer_1-2">
		<g>
			<path class="st0" d="M382.8,264.6c12,29.1,16.1,65.4,6.9,111c-23.9,24.8-98.3,87.9-185.5,98.6c-0.8,0.1-1.5,0.2-2.3,0.3
				s-1.5-0.2-2.3-0.3C112.4,463.5,38,400.4,14.1,375.6c-9.3-46.2-5-83,7.5-112.3l0,0c-7.7-14.6-60-125,33.1-263.3
				c12.3,17.3,68.9,146.1,78.5,167.9l0,0c19-6.8,38.5-11.8,58.4-15c3.9-0.6,7.4-1.1,10.3-1.5c2.9,0.4,6.4,0.8,10.3,1.5
				c20.5,3.3,40.6,8.5,60.1,15.6C281,148.5,338.5,17.5,351,0c100,148.6,32.2,264.9,32.2,264.9L382.8,264.6z"/>
		</g>
		<g class="st1">
			<path class="st0" d="M526.9,324.8c-9.7-2.5-17.4-5.6-23.1-9.4l11.8-25.4c5.4,3.5,12,6.3,19.7,8.5c7.7,2.2,15.3,3.3,22.7,3.3
				c15,0,22.5-3.7,22.5-11.1c0-3.5-2-6-6.1-7.5c-4.1-1.5-10.4-2.8-18.8-3.9c-10-1.5-18.2-3.3-24.7-5.2c-6.5-2-12.1-5.4-16.9-10.4
				c-4.8-5-7.1-12.1-7.1-21.3c0-7.7,2.2-14.6,6.7-20.5c4.5-6,11-10.6,19.5-14c8.5-3.3,18.6-5,30.3-5c8.6,0,17.2,0.9,25.7,2.8
				c8.5,1.9,15.6,4.5,21.2,7.8l-11.8,25.2c-10.7-6-22.5-9.1-35.2-9.1c-7.6,0-13.2,1.1-17,3.2c-3.8,2.1-5.7,4.8-5.7,8.2
				c0,3.8,2,6.4,6.1,7.9c4.1,1.5,10.6,2.9,19.5,4.3c10,1.7,18.1,3.4,24.5,5.3c6.4,1.9,11.9,5.3,16.6,10.3c4.7,5,7,11.9,7,20.9
				c0,7.6-2.3,14.3-6.8,20.2s-11.2,10.5-19.8,13.7c-8.7,3.3-19,4.9-31,4.9C546.5,328.6,536.6,327.3,526.9,324.8z"/>
			<path class="st0" d="M659.5,320.5c-10.2-5.4-18.2-12.8-23.9-22.3c-5.7-9.5-8.6-20.3-8.6-32.4c0-12.1,2.9-22.9,8.6-32.4
				c5.7-9.5,13.7-17,23.9-22.3c10.2-5.4,21.7-8.1,34.6-8.1c12.9,0,24.3,2.7,34.5,8.1c10.1,5.4,18.1,12.8,23.8,22.3
				c5.7,9.5,8.6,20.3,8.6,32.4c0,12.1-2.9,22.9-8.6,32.4c-5.7,9.5-13.7,17-23.8,22.3c-10.1,5.4-21.6,8.1-34.5,8.1
				C681.2,328.6,669.7,325.9,659.5,320.5z M716.4,290.3c5.8-6.1,8.7-14.3,8.7-24.6c0-10.3-2.9-18.5-8.7-24.6
				c-5.8-6.1-13.3-9.2-22.3-9.2s-16.6,3.1-22.5,9.2c-5.9,6.1-8.8,14.3-8.8,24.6c0,10.3,2.9,18.5,8.8,24.6c5.9,6.1,13.4,9.2,22.5,9.2
				S710.6,296.5,716.4,290.3z"/>
			<path class="st0" d="M784.6,158.4H820v168.3h-35.4V158.4z"/>
			<path class="st0" d="M854.7,182c-4.1-3.8-6.1-8.5-6.1-14.1c0-5.6,2-10.3,6.1-14.1c4.1-3.8,9.4-5.7,15.9-5.7
				c6.5,0,11.8,1.8,15.9,5.4s6.1,8.2,6.1,13.6c0,5.9-2,10.8-6.1,14.6s-9.4,5.8-15.9,5.8C864,187.7,858.8,185.8,854.7,182z
				 M852.9,204.7h35.4v122h-35.4V204.7z"/>
			<path class="st0" d="M1045.4,158.4v168.3h-33.8v-14.1c-8.8,10.6-21.5,15.9-38.1,15.9c-11.5,0-21.9-2.6-31.2-7.7
				c-9.3-5.1-16.6-12.5-21.9-22c-5.3-9.5-7.9-20.6-7.9-33.1c0-12.5,2.6-23.6,7.9-33.1c5.3-9.5,12.6-16.9,21.9-22
				c9.3-5.1,19.7-7.7,31.2-7.7c15.6,0,27.7,4.9,36.5,14.7v-59.2H1045.4z M1001.9,290.3c5.9-6.1,8.8-14.3,8.8-24.6
				c0-10.3-2.9-18.5-8.8-24.6c-5.9-6.1-13.3-9.2-22.2-9.2c-9.1,0-16.6,3.1-22.5,9.2c-5.9,6.1-8.8,14.3-8.8,24.6
				c0,10.3,2.9,18.5,8.8,24.6s13.4,9.2,22.5,9.2C988.6,299.5,996,296.5,1001.9,290.3z"/>
			<path class="st0" d="M1166.2,320.5c-10.4-5.4-18.5-12.8-24.3-22.3c-5.8-9.5-8.7-20.3-8.7-32.4c0-12.1,2.9-22.9,8.7-32.4
				c5.8-9.5,13.9-17,24.3-22.3c10.4-5.4,22-8.1,35-8.1c12.9,0,24.1,2.7,33.7,8.1c9.6,5.4,16.6,13,21,23l-27.4,14.7
				c-6.4-11.2-15.5-16.8-27.4-16.8c-9.2,0-16.9,3-22.9,9.1c-6,6.1-9.1,14.3-9.1,24.7c0,10.4,3,18.7,9.1,24.7c6,6,13.7,9.1,22.9,9.1
				c12.1,0,21.2-5.6,27.4-16.8l27.4,15c-4.4,9.7-11.4,17.2-21,22.7c-9.6,5.4-20.8,8.2-33.7,8.2
				C1188.3,328.6,1176.6,325.9,1166.2,320.5z"/>
			<path class="st0" d="M1369.1,216.4c10.1,9,15.2,22.6,15.2,40.7v69.6h-33.1v-15.2c-6.7,11.3-19.1,17-37.2,17
				c-9.4,0-17.5-1.6-24.4-4.8c-6.9-3.2-12.1-7.6-15.8-13.2c-3.6-5.6-5.4-11.9-5.4-19.1c0-11.3,4.3-20.3,12.8-26.8
				c8.5-6.5,21.7-9.8,39.6-9.8h28.1c0-7.7-2.3-13.6-7-17.8c-4.7-4.2-11.7-6.2-21.1-6.2c-6.5,0-12.9,1-19.2,3.1
				c-6.3,2-11.6,4.8-16,8.3l-12.7-24.7c6.7-4.7,14.6-8.3,23.9-10.9c9.3-2.6,18.9-3.9,28.7-3.9C1344.5,202.9,1359,207.4,1369.1,216.4
				z M1338.9,300.6c4.7-2.8,8-6.9,10-12.4v-12.5h-24.3c-14.5,0-21.8,4.8-21.8,14.3c0,4.5,1.8,8.1,5.3,10.8c3.6,2.6,8.4,4,14.6,4
				C1328.9,304.7,1334.3,303.4,1338.9,300.6z"/>
			<path class="st0" d="M1495,320.9c-3.5,2.6-7.8,4.5-12.8,5.8c-5.1,1.3-10.4,1.9-16,1.9c-14.5,0-25.7-3.7-33.7-11.1
				c-7.9-7.4-11.9-18.3-11.9-32.7v-50.1h-18.8v-27.2h18.8v-29.7h35.4v29.7h30.4v27.2H1456v49.7c0,5.1,1.3,9.1,4,11.9
				c2.6,2.8,6.4,4.2,11.2,4.2c5.6,0,10.4-1.5,14.3-4.5L1495,320.9z"/>
		</g>
	</g>
</g>
</svg>
