<svg xmlns="http://www.w3.org/2000/svg" version="1.1" xmlns:xlink="http://www.w3.org/1999/xlink" xmlns:svgjs="http://svgjs.dev/svgjs" width="254.33" height="348.87"><svg xmlns="http://www.w3.org/2000/svg" viewBox="0 0 254.33 348.87"><g id="SvgjsG1011" data-name="Layer 2"><g id="SvgjsG1010" data-name="Layer 1"><path d="M0,0H181.06a86.41,86.41,0,0,1,25.29,3.66,42,42,0,0,1,19.54,12q7.5,8.37,7.5,22.68,0,17.44-9.07,29.3a76,76,0,0,1-23.2,19.89,163.7,163.7,0,0,1-30.18,13.25q-16,5.24-30.17,9.25a180.36,180.36,0,0,0-23.2,8q-9.07,4-9.07,9.25,0,8.37,7.85,13.95t20.93,10.12q13.08,4.53,28.61,9.59a250.49,250.49,0,0,1,31.05,12.56,130.35,130.35,0,0,1,28.6,18.84,82.83,82.83,0,0,1,20.94,28.43q7.85,17.1,7.85,41.52a77.24,77.24,0,0,1-7.85,34.71,85.82,85.82,0,0,1-21.29,27.39,101,101,0,0,1-30.7,18,102.12,102.12,0,0,1-36.1,6.46H0ZM50.59,300H178.27a156.37,156.37,0,0,0,36.28-3.84q16-3.84,25.3-12.91t9.24-24.07q0-14.65-9.59-23.72t-25.3-14.31a275,275,0,0,0-34.53-8.89q-18.84-3.67-37.85-7.68a235.23,235.23,0,0,1-34.72-9.94Q91.41,188.75,81.81,179t-9.59-25.82a24.73,24.73,0,0,1,7.85-18.66,73.75,73.75,0,0,1,20.4-13.26q12.57-5.76,26.34-11.69a183,183,0,0,0,26.34-14,66.34,66.34,0,0,0,20.41-20.23Q181.4,63.15,181.41,45q0-16.39-9.24-24.94T147.05,8.37a183.45,183.45,0,0,0-35.41-3.14h-61Z"></path></g></g></svg><style>@media (prefers-color-scheme: light) { :root { filter: none; } }
@media (prefers-color-scheme: dark) { :root { filter: none; } }
</style></svg>